<?xml version="1.0" standalone="no"?>
<!DOCTYPE svg PUBLIC "-//W3C//DTD SVG 20010904//EN"
 "http://www.w3.org/TR/2001/REC-SVG-20010904/DTD/svg10.dtd">
<svg version="1.0" xmlns="http://www.w3.org/2000/svg"
 width="225.000000pt" height="225.000000pt" viewBox="0 0 225.000000 225.000000"
 preserveAspectRatio="xMidYMid meet">

<g transform="translate(0.000000,225.000000) scale(0.100000,-0.100000)"
fill="#000000" stroke="none">
<path d="M113 2231 c-48 -22 -83 -58 -100 -104 -16 -45 -18 -1949 -2 -1998 17
-52 74 -105 125 -118 58 -15 1923 -15 1976 -1 50 14 97 55 119 105 18 38 19
90 19 1000 0 630 -4 973 -10 997 -14 50 -55 97 -105 119 -38 18 -90 19 -1010
19 -932 0 -972 -1 -1012 -19z m1997 -69 c74 -37 70 25 70 -1037 0 -884 -1
-952 -18 -985 -33 -67 -51 -70 -374 -70 l-288 0 0 340 0 340 185 0 185 0 0
225 0 225 -185 0 -185 0 0 105 c0 93 2 105 19 115 12 6 96 10 205 10 l186 0 0
220 0 220 -229 0 c-197 0 -238 -3 -290 -19 -80 -25 -149 -70 -211 -138 -97
-106 -130 -206 -130 -395 l0 -118 -150 0 -150 0 0 -225 0 -225 150 0 150 0 0
-340 0 -340 -437 0 c-490 0 -491 0 -525 70 -17 33 -18 101 -18 985 0 884 1
952 18 985 37 74 -25 70 1037 70 884 0 952 -1 985 -18z m-270 -511 l0 -150
-176 -3 -176 -3 -29 -33 -29 -32 0 -150 0 -150 185 0 185 0 0 -155 0 -155
-185 0 -185 0 -2 -372 -3 -373 -150 0 -150 0 -3 372 -2 372 -148 3 -147 3 0
150 0 150 148 3 147 3 0 137 c0 81 6 165 15 206 31 147 130 256 280 308 40 14
86 17 238 18 l187 0 0 -149z"/>
</g>
</svg>
