<?xml version="1.0" standalone="no"?>
<!DOCTYPE svg PUBLIC "-//W3C//DTD SVG 20010904//EN"
 "http://www.w3.org/TR/2001/REC-SVG-20010904/DTD/svg10.dtd">
<svg version="1.0" xmlns="http://www.w3.org/2000/svg"
 width="225.000000pt" height="225.000000pt" viewBox="0 0 225.000000 225.000000"
 preserveAspectRatio="xMidYMid meet">

<g transform="translate(0.000000,225.000000) scale(0.100000,-0.100000)"
fill="#000000" stroke="none">
<path d="M985 2189 c-303 -41 -563 -191 -740 -427 -368 -491 -268 -1184 225
-1551 81 -60 192 -119 277 -146 76 -25 90 -14 98 77 4 40 5 89 3 108 l-3 35
-110 5 c-153 7 -193 33 -266 172 -19 35 -60 89 -91 121 -71 71 -73 87 -15 87
56 0 90 -22 172 -114 88 -98 133 -121 218 -111 79 8 93 17 107 62 7 21 21 52
32 70 l19 32 -43 11 c-139 34 -170 44 -218 72 -148 85 -229 243 -230 448 0
100 22 182 70 255 37 58 38 62 29 110 -15 79 5 209 36 235 20 17 110 -11 212
-65 l82 -43 98 15 c106 16 333 13 408 -7 38 -9 46 -7 140 41 71 35 116 52 156
56 l55 5 11 -38 c19 -64 25 -156 14 -204 -9 -41 -8 -48 19 -90 67 -105 75
-133 74 -280 -1 -152 -17 -213 -79 -306 -73 -112 -149 -153 -378 -208 l-28 -7
28 -46 c27 -46 27 -53 34 -255 4 -114 10 -217 14 -228 11 -35 68 -25 180 29
324 157 539 432 616 786 21 98 16 333 -9 438 -105 431 -435 753 -865 841 -98
21 -262 28 -352 15z"/>
</g>
</svg>
