<svg height="512pt" viewBox="0 -32 512 512" width="512pt" xmlns="http://www.w3.org/2000/svg"><path d="m504.5 17.5v413.050781c0 5.519531-4.480469 10-10 10h-477c-5.519531 0-10-4.480469-10-10v-413.050781c0-5.519531 4.480469-10 10-10h477c5.519531 0 10 4.480469 10 10zm0 0" fill="#e3f4ff"/><path d="m251 7.5v433.050781h-233.5c-5.519531 0-10-4.480469-10-10v-413.050781c0-5.519531 4.480469-10 10-10zm0 0" fill="#4e7693"/><path d="m504.5 17.5v413.050781c0 5.519531-4.480469 10-10 10h-29.671875c5.523437 0 10-4.480469 10-10v-413.050781c0-5.519531-4.476563-10-10-10h29.671875c5.519531 0 10 4.480469 10 10zm0 0" fill="#bddff4"/><path d="m504.5 17.5v53.570312h-497v-53.570312c0-5.519531 4.480469-10 10-10h477c5.519531 0 10 4.480469 10 10zm0 0" fill="#618baa"/><path d="m504.5 17.5v53.570312h-29.671875v-53.570312c0-5.519531-4.476563-10-10-10h29.671875c5.519531 0 10 4.480469 10 10zm0 0" fill="#4e7693"/><path d="m153.390625 7.5v63.570312h-145.890625v-53.570312c0-5.519531 4.480469-10 10-10zm0 0" fill="#fd6096"/><path d="m358.359375 296.117188h-62.914063c-4.136718 0-7.492187-3.351563-7.492187-7.488282v-62.914062c0-4.140625 3.355469-7.492188 7.492187-7.492188h62.914063c4.136719 0 7.492187 3.351563 7.492187 7.492188v62.914062c0 4.136719-3.355468 7.488282-7.492187 7.488282zm0 0" fill="#43a3f9"/><path d="m475.953125 288.628906c0 4.136719-3.351563 7.488282-7.488281 7.488282h-62.917969c-4.136719 0-7.488281-3.351563-7.488281-7.488282v-62.914062c0-4.140625 3.351562-7.492188 7.488281-7.492188h62.917969c4.136718 0 7.488281 3.351563 7.488281 7.492188z" fill="#fdb659"/><path d="m358.359375 400.117188h-62.914063c-4.136718 0-7.492187-3.351563-7.492187-7.488282v-62.914062c0-4.140625 3.355469-7.492188 7.492187-7.492188h62.914063c4.136719 0 7.492187 3.351563 7.492187 7.492188v62.914062c0 4.136719-3.355468 7.488282-7.492187 7.488282zm0 0" fill="#fd8724"/><path d="m475.953125 392.628906c0 4.136719-3.351563 7.488282-7.488281 7.488282h-62.917969c-4.136719 0-7.488281-3.351563-7.488281-7.488282v-62.914062c0-4.140625 3.351562-7.492188 7.488281-7.492188h62.917969c4.136718 0 7.488281 3.351563 7.488281 7.492188z" fill="#27e6fc"/><path d="m463.222656 191.386719h-167.777344c-4.136718 0-7.492187-3.355469-7.492187-7.492188v-62.914062c0-4.136719 3.355469-7.492188 7.492187-7.492188h167.777344c4.136719 0 7.488282 3.355469 7.488282 7.492188v62.914062c0 4.136719-3.351563 7.492188-7.488282 7.492188zm0 0" fill="#fd6096"/><path d="m504.5 194.878906c4.144531 0 7.5-3.359375 7.5-7.5v-169.878906c0-9.648438-7.851562-17.5-17.5-17.5h-239.132812c-4.140626 0-7.5 3.359375-7.5 7.5s3.359374 7.5 7.5 7.5h239.132812c1.378906 0 2.5 1.121094 2.5 2.5v46.070312h-336.109375v-48.570312h61.816406c4.144531 0 7.5-3.359375 7.5-7.5s-3.355469-7.5-7.5-7.5h-205.207031c-9.648438 0-17.5 7.851562-17.5 17.5v306.371094c0 4.144531 3.355469 7.5 7.5 7.5s7.5-3.355469 7.5-7.5v-245.304688h228.5v354.480469h-226c-1.378906 0-2.5-1.121094-2.5-2.5v-74.015625c0-4.140625-3.355469-7.5-7.5-7.5s-7.5 3.359375-7.5 7.5v74.015625c0 9.648437 7.851562 17.5 17.5 17.5h477c9.648438 0 17.5-7.851563 17.5-17.5v-210.507813c0-4.140624-3.355469-7.5-7.5-7.5s-7.5 3.359376-7.5 7.5v210.507813c0 1.378906-1.121094 2.5-2.5 2.5h-236v-354.480469h238.5v108.8125c0 4.140625 3.355469 7.5 7.5 7.5zm-489.5-177.378906c0-1.378906 1.121094-2.5 2.5-2.5h128.390625v48.570312h-130.890625zm0 0"/><path d="m54.007812 31.707031h-.105468c-.011719 0-.023438 0-.035156 0-4.125 0-7.476563 3.335938-7.5 7.464844-.019532 4.140625 3.324218 7.515625 7.46875 7.535156h.101562.039062c4.125 0 7.476563-3.335937 7.496094-7.464843.019532-4.144532-3.324218-7.515626-7.464844-7.535157zm0 0"/><path d="m81.484375 31.785156h-.101563c-4.144531 0-7.5 3.359375-7.5 7.5 0 4.144532 3.355469 7.5 7.5 7.5h.101563c4.144531 0 7.5-3.355468 7.5-7.5 0-4.140625-3.355469-7.5-7.5-7.5zm0 0"/><path d="m109.035156 31.867188h-.105468c-.015626 0-.023438 0-.035157 0-4.128906 0-7.480469 3.332031-7.5 7.464843-.019531 4.140625 3.324219 7.515625 7.464844 7.535157h.105469.035156c4.128906 0 7.480469-3.335938 7.5-7.46875.019531-4.140626-3.324219-7.511719-7.464844-7.53125zm0 0"/><path d="m44.929688 224.253906h25.070312c4.144531 0 7.5-3.355468 7.5-7.5 0-4.140625-3.355469-7.5-7.5-7.5h-25.070312c-4.144532 0-7.5 3.359375-7.5 7.5 0 4.144532 3.355468 7.5 7.5 7.5zm0 0"/><path d="m212 209.253906h-111.640625c-4.144531 0-7.5 3.359375-7.5 7.5 0 4.144532 3.355469 7.5 7.5 7.5h111.640625c4.144531 0 7.5-3.355468 7.5-7.5 0-4.140625-3.355469-7.5-7.5-7.5zm0 0"/><path d="m44.929688 254.921875h25.070312c4.144531 0 7.5-3.359375 7.5-7.5 0-4.144531-3.355469-7.5-7.5-7.5h-25.070312c-4.144532 0-7.5 3.355469-7.5 7.5 0 4.140625 3.355468 7.5 7.5 7.5zm0 0"/><path d="m212 239.921875h-111.640625c-4.144531 0-7.5 3.355469-7.5 7.5 0 4.140625 3.355469 7.5 7.5 7.5h111.640625c4.144531 0 7.5-3.359375 7.5-7.5 0-4.144531-3.355469-7.5-7.5-7.5zm0 0"/><path d="m44.929688 397.261719h25.070312c4.144531 0 7.5-3.355469 7.5-7.5 0-4.140625-3.355469-7.5-7.5-7.5h-25.070312c-4.144532 0-7.5 3.359375-7.5 7.5 0 4.144531 3.355468 7.5 7.5 7.5zm0 0"/><path d="m100.359375 397.261719h111.640625c4.144531 0 7.5-3.355469 7.5-7.5 0-4.140625-3.355469-7.5-7.5-7.5h-111.640625c-4.144531 0-7.5 3.359375-7.5 7.5 0 4.144531 3.355469 7.5 7.5 7.5zm0 0"/><path d="m70 106.582031h-25.070312c-4.144532 0-7.5 3.359375-7.5 7.5s3.355468 7.5 7.5 7.5h25.070312c4.144531 0 7.5-3.359375 7.5-7.5s-3.355469-7.5-7.5-7.5zm0 0"/><path d="m212 106.582031h-111.640625c-4.144531 0-7.5 3.359375-7.5 7.5s3.355469 7.5 7.5 7.5h111.640625c4.144531 0 7.5-3.359375 7.5-7.5s-3.355469-7.5-7.5-7.5zm0 0"/><path d="m82.535156 135.519531h-25.070312c-4.144532 0-7.5 3.359375-7.5 7.5s3.355468 7.5 7.5 7.5h25.070312c4.144532 0 7.5-3.359375 7.5-7.5s-3.355468-7.5-7.5-7.5zm0 0"/><path d="m181.25 150.519531c4.144531 0 7.5-3.359375 7.5-7.5s-3.355469-7.5-7.5-7.5h-68.355469c-4.144531 0-7.5 3.359375-7.5 7.5s3.355469 7.5 7.5 7.5zm0 0"/><path d="m62.5 171.957031c0 4.140625 3.355469 7.5 7.5 7.5h25.070312c4.144532 0 7.5-3.359375 7.5-7.5s-3.355468-7.5-7.5-7.5h-25.070312c-4.144531 0-7.5 3.359375-7.5 7.5zm0 0"/><path d="m212 164.457031h-86.570312c-4.144532 0-7.5 3.359375-7.5 7.5s3.355468 7.5 7.5 7.5h86.570312c4.144531 0 7.5-3.359375 7.5-7.5s-3.355469-7.5-7.5-7.5zm0 0"/><path d="m44.929688 298.152344h25.070312c4.144531 0 7.5-3.355469 7.5-7.5 0-4.140625-3.355469-7.5-7.5-7.5h-25.070312c-4.144532 0-7.5 3.359375-7.5 7.5 0 4.144531 3.355468 7.5 7.5 7.5zm0 0"/><path d="m212 283.152344h-111.640625c-4.144531 0-7.5 3.359375-7.5 7.5 0 4.144531 3.355469 7.5 7.5 7.5h111.640625c4.144531 0 7.5-3.355469 7.5-7.5 0-4.140625-3.355469-7.5-7.5-7.5zm0 0"/><path d="m90.035156 319.589844c0-4.140625-3.355468-7.5-7.5-7.5h-25.070312c-4.144532 0-7.5 3.359375-7.5 7.5 0 4.144531 3.355468 7.5 7.5 7.5h25.070312c4.144532 0 7.5-3.355469 7.5-7.5zm0 0"/><path d="m181.25 327.089844c4.144531 0 7.5-3.355469 7.5-7.5 0-4.140625-3.355469-7.5-7.5-7.5h-68.355469c-4.144531 0-7.5 3.359375-7.5 7.5 0 4.144531 3.355469 7.5 7.5 7.5zm0 0"/><path d="m70 356.027344h25.070312c4.144532 0 7.5-3.355469 7.5-7.5 0-4.140625-3.355468-7.5-7.5-7.5h-25.070312c-4.144531 0-7.5 3.359375-7.5 7.5 0 4.144531 3.355469 7.5 7.5 7.5zm0 0"/><path d="m212 341.027344h-86.570312c-4.144532 0-7.5 3.359375-7.5 7.5 0 4.144531 3.355468 7.5 7.5 7.5h86.570312c4.144531 0 7.5-3.355469 7.5-7.5 0-4.140625-3.355469-7.5-7.5-7.5zm0 0"/><path d="m373.351562 225.710938c0-8.265626-6.726562-14.988282-14.992187-14.988282h-62.914063c-8.265624 0-14.992187 6.722656-14.992187 14.988282v62.917968c0 8.265625 6.726563 14.988282 14.992187 14.988282h62.914063c8.269531 0 14.992187-6.722657 14.992187-14.988282zm-77.898437 62.917968-.007813-62.90625 62.90625-.011718.015626 62.90625zm0 0"/><path d="m318.664062 230.9375h-11.234374c-4.144532 0-7.5 3.359375-7.5 7.5 0 4.144531 3.355468 7.5 7.5 7.5h11.234374c4.140626 0 7.5-3.355469 7.5-7.5 0-4.140625-3.359374-7.5-7.5-7.5zm0 0"/><path d="m483.453125 225.710938c0-8.265626-6.722656-14.988282-14.988281-14.988282h-62.917969c-8.265625 0-14.988281 6.722656-14.988281 14.988282v62.917968c0 8.265625 6.722656 14.988282 14.988281 14.988282h62.917969c8.265625 0 14.988281-6.722657 14.988281-14.988282zm-15 62.90625-62.894531.011718-.011719-62.90625 62.90625-.007812zm0 0"/><path d="m417.53125 245.9375h11.234375c4.144531 0 7.5-3.355469 7.5-7.5 0-4.140625-3.355469-7.5-7.5-7.5h-11.234375c-4.140625 0-7.5 3.359375-7.5 7.5 0 4.144531 3.359375 7.5 7.5 7.5zm0 0"/><path d="m358.359375 314.722656h-62.914063c-8.265624 0-14.992187 6.722656-14.992187 14.988282v62.917968c0 8.265625 6.726563 14.988282 14.992187 14.988282h62.914063c8.265625 0 14.992187-6.722657 14.992187-14.988282v-62.917968c0-8.265626-6.726562-14.988282-14.992187-14.988282zm-62.90625 77.90625-.007813-62.90625 62.90625-.011718.015626 62.90625zm0 0"/><path d="m318.664062 334.9375h-11.234374c-4.144532 0-7.5 3.359375-7.5 7.5 0 4.144531 3.355468 7.5 7.5 7.5h11.234374c4.140626 0 7.5-3.355469 7.5-7.5 0-4.140625-3.359374-7.5-7.5-7.5zm0 0"/><path d="m405.546875 407.617188h62.917969c8.265625 0 14.988281-6.722657 14.988281-14.988282v-62.917968c0-8.265626-6.722656-14.988282-14.988281-14.988282h-62.917969c-8.265625 0-14.988281 6.722656-14.988281 14.988282v62.917968c0 8.265625 6.722656 14.988282 14.988281 14.988282zm62.90625-77.90625v62.90625l-62.894531.011718-.011719-62.90625zm0 0"/><path d="m417.53125 349.9375h11.234375c4.144531 0 7.5-3.355469 7.5-7.5 0-4.140625-3.355469-7.5-7.5-7.5h-11.234375c-4.140625 0-7.5 3.359375-7.5 7.5 0 4.144531 3.359375 7.5 7.5 7.5zm0 0"/><path d="m478.210938 183.894531v-62.914062c0-8.265625-6.726563-14.992188-14.988282-14.992188h-167.777344c-8.265624 0-14.992187 6.726563-14.992187 14.992188v62.914062c0 8.265625 6.726563 14.992188 14.992187 14.992188h167.773438c8.265625 0 14.992188-6.726563 14.992188-14.992188zm-182.765626-62.90625 167.765626-.007812.019531 62.90625-167.777344.007812zm0 0"/><path d="m440.5 130.464844h-51.429688c-4.144531 0-7.5 3.355468-7.5 7.5 0 4.140625 3.355469 7.5 7.5 7.5h51.429688c4.144531 0 7.5-3.359375 7.5-7.5 0-4.144532-3.355469-7.5-7.5-7.5zm0 0"/><path d="m400.804688 150.941406h-11.734376c-4.144531 0-7.5 3.359375-7.5 7.5 0 4.144532 3.355469 7.5 7.5 7.5h11.734376c4.140624 0 7.5-3.355468 7.5-7.5 0-4.140625-3.359376-7.5-7.5-7.5zm0 0"/></svg>