<?xml version="1.0" standalone="no"?>
<!DOCTYPE svg PUBLIC "-//W3C//DTD SVG 20010904//EN"
 "http://www.w3.org/TR/2001/REC-SVG-20010904/DTD/svg10.dtd">
<svg version="1.0" xmlns="http://www.w3.org/2000/svg"
 width="225.000000pt" height="225.000000pt" viewBox="0 0 225.000000 225.000000"
 preserveAspectRatio="xMidYMid meet">

<g transform="translate(0.000000,225.000000) scale(0.100000,-0.100000)"
fill="#000000" stroke="none">
<path d="M240 2003 c-94 -33 -164 -97 -209 -193 l-26 -55 0 -630 0 -630 27
-57 c35 -75 94 -138 165 -174 l58 -29 870 0 870 0 63 34 c75 41 125 94 161
170 l26 56 0 620 c0 471 -3 630 -13 662 -18 60 -70 132 -126 174 -95 72 -53
69 -985 69 -734 -1 -841 -3 -881 -17z m1625 -182 c-21 -19 -736 -571 -740
-571 -5 0 -719 552 -739 571 -6 5 303 9 739 9 437 0 745 -4 740 -9z m-1207
-455 c373 -289 438 -336 467 -336 29 0 95 48 477 344 293 228 445 340 450 333
4 -7 8 -267 8 -579 0 -640 2 -625 -73 -679 l-40 -29 -822 0 -822 0 -40 29
c-75 54 -73 40 -73 675 0 311 3 572 6 580 4 11 10 13 18 8 6 -5 206 -161 444
-346z"/>
</g>
</svg>
