<?xml version="1.0" standalone="no"?>
<!DOCTYPE svg PUBLIC "-//W3C//DTD SVG 20010904//EN"
 "http://www.w3.org/TR/2001/REC-SVG-20010904/DTD/svg10.dtd">
<svg version="1.0" xmlns="http://www.w3.org/2000/svg"
 width="920.000000pt" height="960.000000pt" viewBox="0 0 920.000000 960.000000"
 preserveAspectRatio="xMidYMid meet">

<g transform="translate(0.000000,960.000000) scale(0.100000,-0.100000)"
fill="#000000" stroke="none">
<path d="M920 9186 c-127 -36 -222 -116 -279 -236 l-36 -75 -3 -3640 c-2
-2759 0 -3653 9 -3695 34 -161 167 -295 327 -329 39 -8 1029 -11 3665 -11
3957 0 3666 -4 3779 57 57 31 138 113 167 171 54 107 51 -144 51 3769 0 2638
-3 3626 -11 3665 -34 159 -152 281 -312 324 -74 19 -7287 19 -7357 0z m2356
-821 c235 -68 440 -274 525 -530 23 -69 24 -80 29 -555 l5 -485 1230 -5 1230
-5 80 -28 c98 -35 150 -64 238 -134 125 -100 231 -259 273 -408 24 -87 30
-300 11 -392 -31 -144 -93 -263 -196 -375 -106 -115 -227 -191 -369 -231 -77
-22 -80 -22 -1284 -25 l-1208 -3 0 -449 c0 -490 3 -529 58 -659 85 -202 264
-370 469 -439 l78 -27 905 -6 c1011 -6 958 -2 1115 -79 193 -93 351 -279 417
-490 20 -66 23 -94 23 -240 -1 -152 -3 -172 -28 -245 -77 -232 -276 -436 -497
-511 -125 -42 -244 -46 -1143 -41 -706 4 -849 7 -946 21 -247 36 -455 98 -656
195 -234 113 -411 238 -609 430 -345 337 -556 692 -666 1125 -78 307 -75 213
-75 2186 l0 1755 22 85 c87 328 357 564 673 588 105 9 219 0 296 -23z"/>
</g>
</svg>
